<svg version="1.1" xmlns="http://www.w3.org/2000/svg" viewBox="0 0 1308.1552289887688 864.7196430169635" width="2616.3104579775377" height="1729.439286033927">
  <!-- svg-source:excalidraw -->
  
  <defs>
    <style class="style-fonts">
      @font-face {
        font-family: "Virgil";
        src: url("https://excalidraw.com/Virgil.woff2");
      }
      @font-face {
        font-family: "Cascadia";
        src: url("https://excalidraw.com/Cascadia.woff2");
      }
      @font-face {
        font-family: "Assistant";
        src: url("https://excalidraw.com/Assistant-Regular.woff2");
      }
    </style>
    
  </defs>
  <rect x="0" y="0" width="1308.1552289887688" height="864.7196430169635" fill="#ffffff"></rect><g stroke-linecap="round" transform="translate(867.5956461624951 61.18897331632104) rotate(0 215.27979141313688 396.7653348503212)"><path d="M32 0 C139.67 0.11, 248.59 0.13, 398.56 0 M398.56 0 C420.45 0.3, 430.03 12.05, 430.56 32 M430.56 32 C427.87 301.97, 427.67 572.86, 430.56 761.53 M430.56 761.53 C428.93 784.85, 419.91 795.38, 398.56 793.53 M398.56 793.53 C276.1 794.56, 154.66 794.23, 32 793.53 M32 793.53 C10.15 793, -1.91 783.71, 0 761.53 M0 761.53 C0.21 532.21, 0.12 301.66, 0 32 M0 32 C0.49 9.72, 9.66 -0.8, 32 0" stroke="#1e1e1e" stroke-width="2.5" fill="none" stroke-dasharray="8 10"></path></g><g transform="translate(1045.3309627495357 15.278236551765644) rotate(0 39.65997314453125 12.5)"><text x="0" y="0" font-family="Virgil, Segoe UI Emoji" font-size="20px" fill="#1e1e1e" text-anchor="start" style="white-space: pre;" direction="ltr" dominant-baseline="text-before-edge">Backend</text></g><g stroke-linecap="round" transform="translate(915.4929694018556 111.36732701384204) rotate(0 160.3164984817762 134.99256114155574)"><path d="M32 0 C89.36 -1.73, 143.8 -0.84, 288.63 0 M32 0 C105.25 0.51, 178.42 -0.64, 288.63 0 M288.63 0 C308.76 -0.06, 321.69 9.25, 320.63 32 M288.63 0 C309.22 -0.9, 320.3 12.58, 320.63 32 M320.63 32 C319.96 85.79, 321.72 143.44, 320.63 237.99 M320.63 32 C322.54 78.92, 321.22 127.29, 320.63 237.99 M320.63 237.99 C320.14 259.02, 308.8 269.1, 288.63 269.99 M320.63 237.99 C322.66 257.22, 310.13 271.22, 288.63 269.99 M288.63 269.99 C222.41 272.11, 156.74 270.65, 32 269.99 M288.63 269.99 C192.74 269.93, 96.47 269.53, 32 269.99 M32 269.99 C11.02 271.61, 0.34 260.8, 0 237.99 M32 269.99 C12.6 271.36, 0.12 259.59, 0 237.99 M0 237.99 C-1.63 166.95, -0.57 97.42, 0 32 M0 237.99 C-2.36 193.95, -1.22 149.19, 0 32 M0 32 C1.42 8.96, 11.81 1.72, 32 0 M0 32 C-1.31 8.44, 8.61 -1.15, 32 0" stroke="#1e1e1e" stroke-width="2" fill="none"></path></g><g transform="translate(976.7287417227283 210.77306239286884) rotate(0 98.2999038696289 37.5)"><text x="98.2999038696289" y="0" font-family="Virgil, Segoe UI Emoji" font-size="20px" fill="#1e1e1e" text-anchor="middle" style="white-space: pre;" direction="ltr" dominant-baseline="text-before-edge">Web Scraper Script</text><text x="98.2999038696289" y="25" font-family="Virgil, Segoe UI Emoji" font-size="20px" fill="#1e1e1e" text-anchor="middle" style="white-space: pre;" direction="ltr" dominant-baseline="text-before-edge">using BrightData </text><text x="98.2999038696289" y="50" font-family="Virgil, Segoe UI Emoji" font-size="20px" fill="#1e1e1e" text-anchor="middle" style="white-space: pre;" direction="ltr" dominant-baseline="text-before-edge">to scrape top sites</text></g><g stroke-linecap="round" transform="translate(984.8384824027971 548.061807571524) rotate(0 89.66316330588984 18.843889402429795)"><path d="M92.77 0.5 C105.72 0.32, 121.41 1.24, 133.58 2.72 C145.74 4.2, 158.19 6.79, 165.75 9.38 C173.31 11.96, 177.74 15.49, 178.95 18.25 C180.16 21, 178.53 23.21, 173.03 25.9 C167.53 28.59, 156.85 32.54, 145.96 34.4 C135.08 36.26, 121.35 36.6, 107.7 37.05 C94.05 37.5, 77.52 37.75, 64.04 37.1 C50.56 36.45, 36.68 35.09, 26.82 33.15 C16.96 31.22, 9.3 28.51, 4.9 25.51 C0.49 22.51, -1.92 18.13, 0.38 15.15 C2.67 12.18, 10.31 9.86, 18.66 7.67 C27.01 5.48, 37.51 3.23, 50.47 2.03 C63.43 0.83, 88.49 0.6, 96.43 0.48 C104.37 0.36, 98.49 0.94, 98.13 1.33 M113.8 2.1 C126.62 2.21, 141.55 2.33, 151.81 4.11 C162.07 5.89, 170.89 9.81, 175.38 12.77 C179.87 15.74, 181.18 19.08, 178.73 21.91 C176.29 24.74, 169.35 27.53, 160.69 29.76 C152.03 31.98, 139.27 33.75, 126.76 35.28 C114.26 36.8, 99.55 38.83, 85.68 38.9 C71.81 38.97, 55.49 37.54, 43.57 35.67 C31.64 33.79, 21.32 30.32, 14.15 27.64 C6.98 24.97, 1.89 22.54, 0.53 19.61 C-0.83 16.68, 0.7 12.56, 5.97 10.06 C11.24 7.56, 21.32 6.14, 32.14 4.6 C42.96 3.05, 57.32 1.28, 70.87 0.77 C84.43 0.26, 106.02 1.3, 113.47 1.55 C120.92 1.8, 115.84 2.02, 115.57 2.25" stroke="#1e1e1e" stroke-width="2" fill="none"></path></g><g stroke-linecap="round"><g transform="translate(985.9466156004924 561.6575331493368) rotate(0 -0.17718881079906623 96.44977601157092)"><path d="M0.1 0.67 C0.22 32.73, -0.01 161.12, -0.09 193.25 M-1.31 -0.02 C-1.26 31.59, -0.92 159.4, -0.9 191.31" stroke="#1e1e1e" stroke-width="2" fill="none"></path></g></g><mask></mask><g stroke-linecap="round"><g transform="translate(1163.7158026305967 565.215020999026) rotate(0 -0.17718881079906623 96.44977601157092)"><path d="M0.17 -0.74 C0.01 31.43, -0.56 160.04, -0.61 192.44 M-1.2 1.48 C-1.57 33.87, -1.76 162.04, -1.7 193.74" stroke="#1e1e1e" stroke-width="2" fill="none"></path></g></g><mask></mask><g stroke-linecap="round" transform="translate(983.6909739138134 730.6675334434879) rotate(0 89.66316330588984 18.843889402429795)"><path d="M87.47 -0.03 C100.6 -0.43, 116.53 1.44, 129.02 2.62 C141.52 3.79, 154.36 4.84, 162.45 7.02 C170.55 9.19, 175.48 12.76, 177.59 15.66 C179.7 18.56, 179.44 21.65, 175.12 24.41 C170.8 27.17, 162.05 29.98, 151.65 32.23 C141.25 34.49, 126.36 37.01, 112.72 37.95 C99.09 38.89, 83.34 38.8, 69.82 37.88 C56.31 36.96, 42.27 34.52, 31.61 32.41 C20.96 30.31, 11.03 27.73, 5.9 25.24 C0.77 22.76, -0.48 20.27, 0.84 17.49 C2.16 14.72, 6.24 11.15, 13.83 8.58 C21.42 6, 33.59 3.4, 46.39 2.03 C59.19 0.65, 82.76 0.44, 90.61 0.33 C98.46 0.22, 93.58 1.21, 93.49 1.38 M102.17 -0.55 C115.59 -0.51, 130.69 1.33, 142.15 2.97 C153.61 4.61, 164.92 6.52, 170.94 9.29 C176.96 12.06, 178.98 16.37, 178.29 19.59 C177.59 22.8, 173.54 26.13, 166.79 28.59 C160.05 31.05, 149.15 32.86, 137.8 34.37 C126.45 35.87, 112.36 37.29, 98.7 37.62 C85.04 37.95, 68.91 37.48, 55.84 36.36 C42.78 35.23, 29.09 32.93, 20.31 30.87 C11.52 28.81, 5.95 26.86, 3.12 23.99 C0.29 21.12, -0.39 16.85, 3.34 13.64 C7.07 10.44, 15.96 6.77, 25.5 4.77 C35.03 2.77, 47.73 2.63, 60.56 1.64 C73.4 0.65, 95.41 -1.02, 102.49 -1.19 C109.57 -1.36, 103.01 0.21, 103.04 0.61" stroke="#1e1e1e" stroke-width="2" fill="none"></path></g><g transform="translate(1060.7427939241072 647.7769202392474) rotate(0 15.069992065429688 12.5)"><text x="0" y="0" font-family="Virgil, Segoe UI Emoji" font-size="20px" fill="#1e1e1e" text-anchor="start" style="white-space: pre;" direction="ltr" dominant-baseline="text-before-edge">DB</text></g><g stroke-linecap="round"><g transform="translate(1075.7765164674636 383.4224646104144) rotate(0 -0.9745750123634807 79.61393951428533)"><path d="M0.76 -0.32 C0.42 26.27, -0.48 132.04, -1.07 158.76" stroke="#1e1e1e" stroke-width="2.5" fill="none" stroke-dasharray="1.5 8"></path></g><g transform="translate(1075.7765164674636 383.4224646104144) rotate(0 -0.9745750123634807 79.61393951428533)"><path d="M-9.28 135.14 C-6.84 145.55, -3.97 151.75, -1.07 158.76" stroke="#1e1e1e" stroke-width="2.5" fill="none" stroke-dasharray="1.5 6"></path></g><g transform="translate(1075.7765164674636 383.4224646104144) rotate(0 -0.9745750123634807 79.61393951428533)"><path d="M7.82 135.39 C3.76 145.81, 0.11 151.91, -1.07 158.76" stroke="#1e1e1e" stroke-width="2.5" fill="none" stroke-dasharray="1.5 6"></path></g></g><mask></mask><g transform="translate(1092.1704040157606 430.36787763398047) rotate(0 81.87994384765625 25)"><text x="81.87994384765625" y="0" font-family="Virgil, Segoe UI Emoji" font-size="20px" fill="#1e1e1e" text-anchor="middle" style="white-space: pre;" direction="ltr" dominant-baseline="text-before-edge">Insert new data</text><text x="81.87994384765625" y="25" font-family="Virgil, Segoe UI Emoji" font-size="20px" fill="#1e1e1e" text-anchor="middle" style="white-space: pre;" direction="ltr" dominant-baseline="text-before-edge"> every 12 hours</text></g><g transform="translate(431.4861745180756 10) rotate(0 41.72996520996094 12.5)"><text x="0" y="0" font-family="Virgil, Segoe UI Emoji" font-size="20px" fill="#1e1e1e" text-anchor="start" style="white-space: pre;" direction="ltr" dominant-baseline="text-before-edge">Frontend</text></g><g stroke-linecap="round" transform="translate(252.82602976302678 54.19305273478301) rotate(0 215.27979141313688 396.7653348503212)"><path d="M32 0 C109.38 -1.2, 187.4 -0.31, 398.56 0 M398.56 0 C418.04 1.38, 430.05 10.18, 430.56 32 M430.56 32 C428.79 296.98, 428.85 561.59, 430.56 761.53 M430.56 761.53 C431.21 781.17, 421.81 793.28, 398.56 793.53 M398.56 793.53 C284.69 795.86, 172.52 796.86, 32 793.53 M32 793.53 C11.4 792.71, -1.09 784.07, 0 761.53 M0 761.53 C-3.23 529.78, -3.52 299.63, 0 32 M0 32 C0.34 11.04, 11.51 -0.17, 32 0" stroke="#1e1e1e" stroke-width="2.5" fill="none" stroke-dasharray="8 10"></path></g><g stroke-linecap="round" transform="translate(10.000000000000114 375.27293581493717) rotate(0 33.56856522136724 33.375642432738715)"><path d="M42.76 1.67 C49.1 2.88, 56.21 7.71, 60.29 12.88 C64.37 18.06, 66.94 26.33, 67.23 32.71 C67.51 39.08, 65.84 45.8, 62.02 51.15 C58.2 56.49, 50.59 62.49, 44.31 64.77 C38.03 67.06, 30.43 66.73, 24.33 64.86 C18.22 62.99, 11.64 58.49, 7.7 53.54 C3.76 48.6, 1.15 41.61, 0.67 35.19 C0.18 28.76, 1.21 20.62, 4.79 14.99 C8.36 9.36, 14.97 3.38, 22.12 1.41 C29.26 -0.55, 42.85 2.5, 47.67 3.2 C52.49 3.89, 51.24 5.08, 51.04 5.57 M34.82 -0.1 C41.46 -0.46, 50.27 2.33, 55.53 6.53 C60.78 10.74, 64.64 18.6, 66.34 25.14 C68.05 31.67, 67.91 39.77, 65.76 45.73 C63.61 51.68, 59.05 57.24, 53.43 60.86 C47.81 64.48, 38.96 67.51, 32.01 67.44 C25.06 67.37, 17 64.75, 11.73 60.44 C6.46 56.13, 2.18 48.05, 0.38 41.57 C-1.42 35.1, -1.46 27.74, 0.93 21.58 C3.32 15.42, 8.87 8.11, 14.7 4.58 C20.53 1.05, 32.37 1.22, 35.91 0.4 C39.46 -0.42, 35.93 -0.65, 35.95 -0.34" stroke="#343a40" stroke-width="1" fill="none"></path></g><g stroke-linecap="round" transform="translate(33.150734635425806 386.5447039027502) rotate(0 9.45321664279885 9.839062220055922)"><path d="M10.73 0.08 C12.67 0.21, 15.01 1.89, 16.43 3.35 C17.84 4.82, 19.18 6.79, 19.22 8.86 C19.26 10.93, 17.92 14.06, 16.66 15.77 C15.39 17.49, 13.47 18.69, 11.61 19.14 C9.74 19.58, 7.22 19.29, 5.46 18.43 C3.71 17.58, 2 15.92, 1.07 14.03 C0.15 12.14, -0.61 9.24, -0.08 7.12 C0.46 4.99, 2.46 2.44, 4.3 1.29 C6.14 0.15, 9.88 0.41, 10.98 0.24 C12.08 0.07, 10.93 0.12, 10.92 0.27 M9.69 -0.06 C11.81 -0.21, 14.76 0.68, 16.33 2.16 C17.89 3.64, 18.8 6.6, 19.05 8.81 C19.31 11.02, 18.87 13.7, 17.87 15.41 C16.87 17.12, 15.06 18.41, 13.05 19.07 C11.05 19.73, 7.92 20.06, 5.84 19.38 C3.76 18.7, 1.59 16.97, 0.57 14.98 C-0.45 12.98, -0.7 9.6, -0.3 7.43 C0.1 5.26, 1.31 3.31, 2.96 1.97 C4.61 0.63, 8.38 -0.32, 9.59 -0.58 C10.8 -0.85, 10.12 0.21, 10.23 0.39" stroke="#343a40" stroke-width="1" fill="none"></path></g><g stroke-linecap="round"><g transform="translate(23.890440781255393 424.66116970384536) rotate(0 19.485201651483237 -2.1221506749140246)"><path d="M0.59 -0.13 C3.7 -1.89, 12.94 -11.66, 19.34 -11.68 C25.74 -11.7, 38.84 -3.62, 38.98 -0.26 C39.13 3.11, 26.89 8.59, 20.2 8.5 C13.52 8.41, 2.24 0.58, -1.12 -0.82 M-0.56 -1.25 C2.37 -3.28, 12.15 -14.06, 18.62 -13.66 C25.08 -13.26, 37.87 -2.21, 38.23 1.13 C38.58 4.46, 27.02 6.69, 20.73 6.35 C14.44 6.02, 3.69 0.35, 0.47 -0.86" stroke="#343a40" stroke-width="1" fill="none"></path></g></g><mask></mask><g transform="translate(19.439706837171798 461.69172555939815) rotate(0 22.339981079101562 12.5)"><text x="22.339981079101562" y="0" font-family="Virgil, Segoe UI Emoji" font-size="20px" fill="#1e1e1e" text-anchor="middle" style="white-space: pre;" direction="ltr" dominant-baseline="text-before-edge">User</text></g><g stroke-linecap="round" transform="translate(291.65868504059495 91.92926732560136) rotate(0 178.06170935290447 136.73499783922756)"><path d="M32 0 C93.81 0.82, 158.88 1.29, 324.12 0 M32 0 C125.14 -0.94, 217.2 -0.12, 324.12 0 M324.12 0 C343.6 -0.87, 356.56 10.13, 356.12 32 M324.12 0 C344.27 -0.54, 358.32 9.3, 356.12 32 M356.12 32 C356.35 110.66, 356.74 188.93, 356.12 241.47 M356.12 32 C356.57 114.21, 357.43 196.9, 356.12 241.47 M356.12 241.47 C355.59 261.28, 343.86 272.5, 324.12 273.47 M356.12 241.47 C356.54 263.32, 343.31 275.74, 324.12 273.47 M324.12 273.47 C215.91 274.12, 108.49 274.49, 32 273.47 M324.12 273.47 C262.24 274.77, 201.08 275.37, 32 273.47 M32 273.47 C11.06 271.88, 1.7 263.36, 0 241.47 M32 273.47 C8.5 271.4, 2.23 260.95, 0 241.47 M0 241.47 C0.32 167.14, 0.64 90.95, 0 32 M0 241.47 C-0.75 174.44, -0.68 107.1, 0 32 M0 32 C-0.8 9.39, 8.96 1.74, 32 0 M0 32 C0.18 9.62, 12.48 -0.39, 32 0" stroke="#1e1e1e" stroke-width="1" fill="none"></path></g><g transform="translate(406.0704386439877 216.16426516482892) rotate(0 63.64995574951172 12.5)"><text x="63.64995574951172" y="0" font-family="Virgil, Segoe UI Emoji" font-size="20px" fill="#1e1e1e" text-anchor="middle" style="white-space: pre;" direction="ltr" dominant-baseline="text-before-edge">Landing Page</text></g><g stroke-linecap="round"><g transform="translate(477.48042034939704 368.1724051803013) rotate(0 -0.768844389207402 80.5218682379645)"><path d="M-0.33 -0.27 C-0.41 26.95, -0.68 135.49, -0.78 162.21 M1.7 -1.46 C1.55 25.56, -0.81 133.64, -1.34 160.7" stroke="#1e1e1e" stroke-width="1" fill="none"></path></g><g transform="translate(477.48042034939704 368.1724051803013) rotate(0 -0.768844389207402 80.5218682379645)"><path d="M-9.4 137.03 C-7.87 144.78, -3.27 150.94, -1.34 160.7 M-9.4 137.03 C-7.09 142.29, -6.58 146.51, -1.34 160.7" stroke="#1e1e1e" stroke-width="1" fill="none"></path></g><g transform="translate(477.48042034939704 368.1724051803013) rotate(0 -0.768844389207402 80.5218682379645)"><path d="M7.69 137.38 C4.55 144.99, 4.48 151.05, -1.34 160.7 M7.69 137.38 C6.29 142.62, 3.07 146.76, -1.34 160.7" stroke="#1e1e1e" stroke-width="1" fill="none"></path></g></g><mask></mask><g transform="translate(311.6044202199115 436.1980027395906) rotate(0 73.96993255615234 12.5)"><text x="73.96993255615234" y="0" font-family="Virgil, Segoe UI Emoji" font-size="20px" fill="#1e1e1e" text-anchor="middle" style="white-space: pre;" direction="ltr" dominant-baseline="text-before-edge">Authenticated?</text></g><g stroke-linecap="round" transform="translate(296.8470590739712 541.9285859536437) rotate(0 178.06170935290447 136.73499783922756)"><path d="M32 0 C142.97 -0.57, 252.25 0.99, 324.12 0 M32 0 C133.82 -0.82, 234.38 -0.92, 324.12 0 M324.12 0 C343.62 -1.6, 354.42 11.35, 356.12 32 M324.12 0 C347.65 -0.87, 356.81 8.82, 356.12 32 M356.12 32 C358.06 104.05, 356.89 180.87, 356.12 241.47 M356.12 32 C356.01 102.94, 356.37 173.34, 356.12 241.47 M356.12 241.47 C354.89 262.27, 345.28 274.04, 324.12 273.47 M356.12 241.47 C355.04 263.52, 345.81 272.28, 324.12 273.47 M324.12 273.47 C214.85 274.22, 107.94 273.52, 32 273.47 M324.12 273.47 C252.15 272.71, 180.17 272.78, 32 273.47 M32 273.47 C10.91 273.5, -0.49 261.05, 0 241.47 M32 273.47 C10.06 271.18, 1.38 262.55, 0 241.47 M0 241.47 C-0.99 174.52, -2.41 103.52, 0 32 M0 241.47 C2.04 163.12, 1 84.61, 0 32 M0 32 C-1.18 8.75, 12.1 -1.56, 32 0 M0 32 C-0.67 10.16, 8.38 -1.05, 32 0" stroke="#1e1e1e" stroke-width="1" fill="none"></path></g><g transform="translate(387.47882915685614 666.1635837928713) rotate(0 87.42993927001953 12.5)"><text x="87.42993927001953" y="0" font-family="Virgil, Segoe UI Emoji" font-size="20px" fill="#1e1e1e" text-anchor="middle" style="white-space: pre;" direction="ltr" dominant-baseline="text-before-edge">Main Search Page</text></g><g stroke-linecap="round"><g transform="translate(90.96438980575658 421.80368237970004) rotate(0 80.45776173181304 -0.3353816982969988)"><path d="M-0.21 -0.88 C26.45 -0.96, 134.04 -1, 160.98 -0.97 M-1.78 1.27 C24.64 1.41, 132.95 0.51, 160.06 0.41" stroke="#1e1e1e" stroke-width="1" fill="none"></path></g><g transform="translate(90.96438980575658 421.80368237970004) rotate(0 80.45776173181304 -0.3353816982969988)"><path d="M136.62 9.11 C144.18 5.91, 154.15 3.26, 160.06 0.41 M136.62 9.11 C143.21 6.95, 150.3 4.38, 160.06 0.41" stroke="#1e1e1e" stroke-width="1" fill="none"></path></g><g transform="translate(90.96438980575658 421.80368237970004) rotate(0 80.45776173181304 -0.3353816982969988)"><path d="M136.52 -7.99 C144.04 -4.63, 154.05 -0.71, 160.06 0.41 M136.52 -7.99 C143.14 -5.02, 150.25 -2.46, 160.06 0.41" stroke="#1e1e1e" stroke-width="1" fill="none"></path></g></g><mask></mask><g stroke-linecap="round"><g transform="translate(656.6948538027762 682.6506443505665) rotate(0 102.40834004053431 -0.28615135726255403)"><path d="M1.05 0.44 C35.25 0.4, 170.22 0.48, 204.15 0.51 M0.14 -0.37 C34.83 -0.79, 172.58 -0.93, 206.51 -1.05" stroke="#1e1e1e" stroke-width="1" fill="none"></path></g><g transform="translate(656.6948538027762 682.6506443505665) rotate(0 102.40834004053431 -0.28615135726255403)"><path d="M183.04 7.56 C188.62 4.44, 194.59 3.39, 206.51 -1.05 M183.04 7.56 C192.77 3.99, 202.61 1.23, 206.51 -1.05" stroke="#1e1e1e" stroke-width="1" fill="none"></path></g><g transform="translate(656.6948538027762 682.6506443505665) rotate(0 102.40834004053431 -0.28615135726255403)"><path d="M183 -9.54 C188.7 -9.09, 194.67 -6.56, 206.51 -1.05 M183 -9.54 C192.86 -6.28, 202.71 -2.21, 206.51 -1.05" stroke="#1e1e1e" stroke-width="1" fill="none"></path></g></g><mask></mask><g transform="translate(729.7192630688503 705.7581356735966) rotate(0 41.98997497558594 12.5)"><text x="41.98997497558594" y="0" font-family="Virgil, Segoe UI Emoji" font-size="20px" fill="#1e1e1e" text-anchor="middle" style="white-space: pre;" direction="ltr" dominant-baseline="text-before-edge">API Call</text></g><g stroke-linecap="round"><g transform="translate(869.8006925555151 638.5279511984689) rotate(0 58.8456420177032 -1.027683369093495)"><path d="M0.62 -1.02 C20.29 -1.4, 99 -2.41, 118.39 -2.66" stroke="#1e1e1e" stroke-width="1.5" fill="none" stroke-dasharray="1.5 7"></path></g><g transform="translate(869.8006925555151 638.5279511984689) rotate(0 58.8456420177032 -1.027683369093495)"><path d="M95.01 6.2 C101.08 4.32, 109.52 -1.01, 118.39 -2.66" stroke="#1e1e1e" stroke-width="1.5" fill="none" stroke-dasharray="1.5 5"></path></g><g transform="translate(869.8006925555151 638.5279511984689) rotate(0 58.8456420177032 -1.027683369093495)"><path d="M94.79 -10.9 C100.88 -7.12, 109.39 -6.79, 118.39 -2.66" stroke="#1e1e1e" stroke-width="1.5" fill="none" stroke-dasharray="1.5 5"></path></g></g><mask></mask><g stroke-linecap="round"><g transform="translate(869.7453084218512 722.6687578189193) rotate(0 59.405637146969866 -0.4769189287708855)"><path d="M-0.26 -0.9 C19.54 -1.03, 99.12 -1.13, 119.03 -1.31" stroke="#1e1e1e" stroke-width="1.5" fill="none" stroke-dasharray="1.5 7"></path></g><g transform="translate(869.7453084218512 722.6687578189193) rotate(0 59.405637146969866 -0.4769189287708855)"><path d="M95.58 7.35 C101.64 4.98, 110.05 2.46, 119.03 -1.31" stroke="#1e1e1e" stroke-width="1.5" fill="none" stroke-dasharray="1.5 5"></path></g><g transform="translate(869.7453084218512 722.6687578189193) rotate(0 59.405637146969866 -0.4769189287708855)"><path d="M95.49 -9.75 C101.51 -6.64, 109.95 -3.68, 119.03 -1.31" stroke="#1e1e1e" stroke-width="1.5" fill="none" stroke-dasharray="1.5 5"></path></g></g><mask></mask><g transform="translate(896.9410351641284 598.5590680711505) rotate(0 24.329978942871094 12.5)"><text x="24.329978942871094" y="0" font-family="Virgil, Segoe UI Emoji" font-size="20px" fill="#1e1e1e" text-anchor="middle" style="white-space: pre;" direction="ltr" dominant-baseline="text-before-edge">/jobs</text></g><g transform="translate(886.2010077094724 682.2629554149204) rotate(0 39.629966735839844 12.5)"><text x="39.629966735839844" y="0" font-family="Virgil, Segoe UI Emoji" font-size="20px" fill="#1e1e1e" text-anchor="middle" style="white-space: pre;" direction="ltr" dominant-baseline="text-before-edge">/jobs/:id</text></g></svg>